# Blender v2.79 (sub 0) OBJ File: ''
# www.blender.org
mtllib Mesh006.mtl
o Mesh006
v -0.018228 2.769026 -0.019565
v 0.437814 2.769026 -1.512384
v 0.437814 -0.012129 -1.512385
v -0.018228 -0.012129 -0.019565
v 0.437814 2.769026 -1.512384
v 0.487975 2.769026 -1.497060
v 0.487975 -0.012129 -1.497061
v 0.437814 -0.012129 -1.512385
v 0.487975 2.769026 -1.497060
v 0.031934 2.769026 -0.004241
v 0.031934 -0.012129 -0.004241
v 0.487975 -0.012129 -1.497061
v 0.031934 2.769026 -0.004241
v -0.018228 2.769026 -0.019565
v -0.018228 -0.012129 -0.019565
v 0.031934 -0.012129 -0.004241
v -0.018228 -0.012129 -0.019565
v 0.437814 -0.012129 -1.512385
v 0.487975 -0.012129 -1.497061
v 0.031934 -0.012129 -0.004241
v 0.031934 2.769026 -0.004241
v 0.487975 2.769026 -1.497060
v 0.437814 2.769026 -1.512384
v -0.018228 2.769026 -0.019565
vt 0.396810 0.987118
vt 0.972516 0.987118
vt 0.972516 0.022625
vt 0.396810 0.022625
vt 0.226119 0.987118
vt 0.237911 0.987118
vt 0.237911 0.022625
vt 0.226119 0.022625
vt 0.522887 0.987118
vt -0.052818 0.987118
vt -0.052818 0.022625
vt 0.522887 0.022625
vt 0.237911 0.987118
vt 0.226119 0.987118
vt 0.226119 0.022625
vt 0.237911 0.022625
vt 0.226119 0.792966
vt 0.226119 1.739212
vt 0.237911 1.739212
vt 0.237911 0.792966
vt 0.237911 0.792966
vt 0.237911 1.739212
vt 0.226119 1.739212
vt 0.226119 0.792966
vn -0.9564 0.0000 -0.2922
vn 0.2922 0.0000 -0.9564
vn 0.9564 -0.0000 0.2922
vn -0.2922 -0.0000 0.9564
vn 0.0000 -1.0000 -0.0000
vn -0.0000 1.0000 0.0000
usemtl None
s 1
f 1/1/1 2/2/1 3/3/1
f 1/1/1 3/3/1 4/4/1
f 5/5/2 6/6/2 7/7/2
f 5/5/2 7/7/2 8/8/2
f 9/9/3 10/10/3 11/11/3
f 9/9/3 11/11/3 12/12/3
f 13/13/4 14/14/4 15/15/4
f 13/13/4 15/15/4 16/16/4
f 17/17/5 18/18/5 19/19/5
f 17/17/5 19/19/5 20/20/5
f 21/21/6 22/22/6 23/23/6
f 21/21/6 23/23/6 24/24/6
